<?xml version="1.0" encoding="iso-8859-1"?>
<!-- Generator: Adobe Illustrator 18.0.0, SVG Export Plug-In . SVG Version: 6.00 Build 0)  -->
<!DOCTYPE svg PUBLIC "-//W3C//DTD SVG 1.1//EN" "http://www.w3.org/Graphics/SVG/1.1/DTD/svg11.dtd">
<svg version="1.1" id="Capa_1" xmlns="http://www.w3.org/2000/svg" xmlns:xlink="http://www.w3.org/1999/xlink" x="0px" y="0px"
	 viewBox="0 0 414.391 414.391" style="enable-background:new 0 0 414.391 414.391;" xml:space="preserve">
<g>
	<path d="M349.895,132.771l-37.057-0.045c-24.229-34.403-63.394-54.81-105.643-54.81c-42.25,0-81.429,20.422-105.674,54.853H64.496
		C28.933,132.77,0,161.701,0,197.263v19.899c0,35.542,28.933,64.457,64.496,64.457h37.023
		c24.228,34.431,63.408,54.854,105.676,54.854c42.207,0,81.352-20.386,105.601-54.753l37.099-0.101
		c35.564,0,64.496-28.931,64.496-64.492v-19.899C414.391,161.686,385.458,132.771,349.895,132.771z M166.951,183.19l-20.307,56.156
		c-0.363,0.999-1.34,1.675-2.381,1.649l-7.555-0.089c-1.063-0.013-2.002-0.697-2.34-1.705l-11.926-35.568l-11.984,35.577
		c-0.338,1.005-1.273,1.686-2.334,1.702l-7.543,0.107c-0.012,0-0.023,0-0.035,0c-1.047,0-1.982-0.651-2.346-1.635L77.475,183.23
		c-0.23-0.622-0.203-1.31,0.074-1.912c0.277-0.602,0.783-1.069,1.406-1.299l7.506-2.77c1.291-0.479,2.732,0.185,3.211,1.481
		l14.348,38.875l12.277-36.451c0.344-1.018,1.297-1.702,2.369-1.702c0.002,0,0.002,0,0.002,0l7.584,0.006
		c1.074,0.001,2.027,0.688,2.369,1.705l12.143,36.218l13.963-38.611c0.225-0.623,0.689-1.132,1.289-1.413
		c0.602-0.282,1.287-0.313,1.912-0.087l7.523,2.721C166.748,180.458,167.42,181.892,166.951,183.19z M185.154,236.287
		c0,1.381-1.119,2.5-2.5,2.5h-8c-1.381,0-2.5-1.119-2.5-2.5v-36.156c0-1.381,1.119-2.5,2.5-2.5h8c1.381,0,2.5,1.119,2.5,2.5V236.287
		z M178.654,191.024c-4.135,0-7.498-3.364-7.498-7.5s3.363-7.5,7.498-7.5c4.137,0,7.5,3.364,7.5,7.5
		S182.791,191.024,178.654,191.024z M398.391,217.128c0,26.738-21.755,48.492-48.496,48.492l-115.051,0.107
		c-9.561,0-18.57,0-26.553-0.039c4.958-5.177,8.57-11.723,8.57-19.98v-49.44c0-26.214,21.336-47.541,47.561-47.541l85.473,0.045
		c26.741,0,48.496,21.737,48.496,48.457V217.128z"/>
	<path d="M294.049,173.37h-36.697c-1.381,0-2.5,1.119-2.5,2.5v60.893c0,1.381,1.119,2.5,2.5,2.5h8c1.381,0,2.5-1.119,2.5-2.5
		v-21.794h20.996c1.381,0,2.5-1.119,2.5-2.5v-8c0-1.381-1.119-2.5-2.5-2.5h-20.996V186.37h26.197c1.381,0,2.5-1.119,2.5-2.5v-8
		C296.549,174.489,295.43,173.37,294.049,173.37z"/>
	<path d="M317.572,198.521h-8c-1.381,0-2.5,1.119-2.5,2.5v36.157c0,1.381,1.119,2.5,2.5,2.5h8c1.381,0,2.5-1.119,2.5-2.5v-36.157
		C320.072,199.641,318.953,198.521,317.572,198.521z"/>
	<path d="M313.572,176.024c-4.135,0-7.5,3.364-7.5,7.5s3.365,7.5,7.5,7.5c4.135,0,7.498-3.364,7.498-7.5
		S317.707,176.024,313.572,176.024z"/>
</g>
<g>
</g>
<g>
</g>
<g>
</g>
<g>
</g>
<g>
</g>
<g>
</g>
<g>
</g>
<g>
</g>
<g>
</g>
<g>
</g>
<g>
</g>
<g>
</g>
<g>
</g>
<g>
</g>
<g>
</g>
</svg>
